<?xml version="1.0" encoding="iso-8859-1"?>
<!-- Generator: Adobe Illustrator 19.0.0, SVG Export Plug-In . SVG Version: 6.00 Build 0)  -->
<svg version="1.1" id="Layer_1" xmlns="http://www.w3.org/2000/svg" xmlns:xlink="http://www.w3.org/1999/xlink" x="0px" y="0px"
	 viewBox="0 0 512 512" style="enable-background:new 0 0 512 512;" xml:space="preserve">
<path style="fill:#99988D;" d="M174.677,25.253v86.551h162.645V25.253H174.677z M309.862,103.155
	c0,6.363-5.202,11.522-11.617,11.522h-84.49c-6.416,0-11.617-5.158-11.617-11.522V73.827c0-6.363,5.201-11.522,11.617-11.522h84.49
	c6.416,0,11.617,5.159,11.617,11.522V103.155z"/>
<path id="SVGCleanerId_0" style="fill:#706F67;" d="M358.444,25.073c0,6.651-5.487,12.093-12.192,12.093H165.747
	c-6.706,0-12.193-5.442-12.193-12.093v-5.144c0-6.651,5.487-12.093,12.193-12.093h180.505c6.705,0,12.192,5.442,12.192,12.093
	V25.073z"/>
<g>
	<path id="SVGCleanerId_0_1_" style="fill:#706F67;" d="M358.444,25.073c0,6.651-5.487,12.093-12.192,12.093H165.747
		c-6.706,0-12.193-5.442-12.193-12.093v-5.144c0-6.651,5.487-12.093,12.193-12.093h180.505c6.705,0,12.192,5.442,12.192,12.093
		V25.073z"/>
</g>
<path style="opacity:0.1;enable-background:new    ;" d="M197.395,25.073v-5.144c0-6.651,5.487-12.093,12.192-12.093h-43.841
	c-6.706,0-12.193,5.442-12.193,12.093v5.144c0,6.651,5.487,12.093,12.193,12.093h43.841
	C202.882,37.166,197.395,31.724,197.395,25.073z"/>
<path id="SVGCleanerId_1" style="fill:#BCBCB3;" d="M384.627,492.072c0,6.651-5.487,12.092-12.192,12.092H139.563
	c-6.705,0-12.192-5.441-12.192-12.092v-5.144c0-6.651,5.487-12.093,12.192-12.093h232.871c6.705,0,12.192,5.442,12.192,12.093v5.144
	H384.627z"/>
<g>
	<path id="SVGCleanerId_1_1_" style="fill:#BCBCB3;" d="M384.627,492.072c0,6.651-5.487,12.092-12.192,12.092H139.563
		c-6.705,0-12.192-5.441-12.192-12.092v-5.144c0-6.651,5.487-12.093,12.192-12.093h232.871c6.705,0,12.192,5.442,12.192,12.093
		v5.144H384.627z"/>
</g>
<path style="opacity:0.1;enable-background:new    ;" d="M171.152,492.072v-5.144c0-6.651,5.487-12.093,12.192-12.093h-43.78
	c-6.705,0-12.192,5.442-12.192,12.093v5.144c0,6.651,5.487,12.092,12.192,12.092h43.78
	C176.638,504.163,171.152,498.722,171.152,492.072z"/>
<rect x="240.754" y="86.862" style="fill:#BCBCB3;" width="30.48" height="24.94"/>
<path style="fill:#99988D;" d="M405.969,395.228c0,28.925-23.642,52.373-52.806,52.373H158.835
	c-29.164,0-52.806-23.448-52.806-52.373v-230.44c0-28.925,23.642-52.372,52.806-52.372h194.329
	c29.164,0,52.806,23.448,52.806,52.372v230.44H405.969z"/>
<g>
	<path style="fill:#BCBCB3;" d="M106.029,315.408v79.821c0,28.925,23.642,52.373,52.806,52.373h194.329
		c29.164,0,52.806-23.448,52.806-52.373v-79.821L106.029,315.408L106.029,315.408z"/>
	<path style="fill:#BCBCB3;" d="M353.163,112.416H158.835c-29.164,0-52.806,23.448-52.806,52.372v26.069h299.941v-26.069
		C405.969,135.864,382.328,112.416,353.163,112.416z"/>
</g>
<path style="opacity:0.1;enable-background:new    ;" d="M138.915,395.228v-230.44c0-28.925,23.642-52.372,52.806-52.372h-32.887
	c-29.164,0-52.806,23.448-52.806,52.372v230.44c0,28.925,23.642,52.373,52.806,52.373h32.887
	C162.558,447.601,138.915,424.153,138.915,395.228z"/>
<circle style="fill:#FFD267;" cx="255.999" cy="314.514" r="84.637"/>
<path style="opacity:0.1;enable-background:new    ;" d="M192.261,314.514c0-43.202,32.378-78.82,74.188-83.971
	c-3.426-0.422-6.908-0.666-10.449-0.666c-46.743,0-84.637,37.893-84.637,84.637s37.893,84.637,84.637,84.637
	c3.541,0,7.023-0.242,10.449-0.666C224.639,393.334,192.261,357.717,192.261,314.514z"/>
<path style="fill:#EA5653;" d="M295.384,310.837l-12.855-19.394c-0.452-0.683-1.174-1.088-1.943-1.088
	c-0.77,0-1.494,0.404-1.945,1.088l-4.04,6.094c-0.889-2.301-2.085-4.571-3.597-6.756l-12.854-19.395
	c-0.452-0.681-1.174-1.087-1.944-1.087c-0.77,0-1.494,0.405-1.946,1.087l-12.85,19.386c-1.602,2.276-2.855,4.65-3.766,7.056
	l-4.232-6.383c-0.452-0.683-1.174-1.088-1.944-1.088c-0.77,0-1.494,0.404-1.945,1.088l-12.85,19.385
	c-7.506,10.662-7.416,23.455,0.222,31.845c3.89,4.269,9.061,6.633,14.563,6.652c0.002,0,0.004,0,0.007,0c0.002,0,0.005,0,0.007,0
	c5.502-0.018,43.6-0.019,49.101,0c0.002,0,0.004,0,0.007,0c0.003,0,0.005,0,0.008,0c5.502-0.018,10.676-2.381,14.565-6.652
	C302.721,334.364,302.813,321.573,295.384,310.837z"/>
<path style="fill:#FFFFFF;" d="M255.999,326.023c-12.363,0-22.589,10.126-24.299,23.302c6.09-0.018,42.353-0.019,48.599,0
	C278.588,336.149,268.363,326.023,255.999,326.023z"/>
<path d="M289.065,287.119c-1.906-2.88-5.076-4.6-8.479-4.6c-1.716,0-3.372,0.437-4.836,1.236l-11.069-16.701
	c-1.907-2.876-5.075-4.592-8.475-4.592c-3.403,0-6.572,1.718-8.477,4.593l-11.167,16.847c-1.527-0.893-3.276-1.383-5.093-1.383
	c-3.408,0-6.581,1.722-8.477,4.594l-12.792,19.298c-9.601,13.715-9.243,30.394,0.903,41.54c5.386,5.912,12.606,9.184,20.397,9.211
	c5.496-0.018,43.516-0.021,49.082,0h0.008c0.008,0,0.018,0,0.026,0c7.725-0.026,14.946-3.298,20.334-9.213
	c10.057-11.047,10.426-27.716,0.925-41.503L289.065,287.119z M289.362,337.396c-2.391,2.625-5.51,4.077-8.783,4.093
	c-5.595-0.02-43.667-0.019-49.091,0c-3.279-0.012-6.403-1.465-8.795-4.091c-5.105-5.609-4.949-14.473,0.391-22.059
	c0.042-0.06,0.084-0.12,0.124-0.181l8.278-12.488c1.668,2.122,4.327,3.25,7.036,2.945c2.922-0.328,5.415-2.265,6.454-5.014
	c0.694-1.833,1.65-3.622,2.844-5.317c0.042-0.06,0.084-0.12,0.123-0.181l8.262-12.465l8.267,12.474
	c0.029,0.044,0.059,0.087,0.089,0.131c1.129,1.63,2.047,3.353,2.73,5.121c1.056,2.733,3.549,4.649,6.462,4.965
	c2.591,0.281,5.126-0.742,6.795-2.687l8.304,12.527c0.029,0.044,0.059,0.087,0.088,0.13
	C294.246,322.964,294.415,331.846,289.362,337.396z"/>
<path d="M353.163,104.58h-8.005V45.003h1.093c11.044,0,20.029-8.94,20.029-19.929v-5.144C366.281,8.94,357.296,0,346.253,0H165.747
	c-11.044,0-20.03,8.94-20.03,19.929v5.144c0,10.989,8.985,19.929,20.03,19.929h1.093v59.577h-8.005
	c-33.439,0-60.643,27.01-60.643,60.209v230.44c0,27.598,18.805,50.902,44.357,57.987v13.783h-2.985
	c-11.044,0-20.029,8.94-20.029,19.929v5.144c0,10.989,8.985,19.928,20.029,19.928h232.871c11.044,0,20.029-8.94,20.029-19.928
	v-5.144c0-10.989-8.985-19.929-20.029-19.929h-2.985v-13.784c25.552-7.083,44.357-30.388,44.357-57.987V164.789
	C413.806,131.589,386.602,104.58,353.163,104.58z M165.747,29.329c-2.361,0-4.356-1.949-4.356-4.256v-5.144
	c0-2.307,1.995-4.256,4.356-4.256h180.505c2.361,0,4.355,1.949,4.355,4.256v5.144c0,2.307-1.995,4.256-4.355,4.256H251.82
	c-4.328,0-7.837,3.509-7.837,7.837s3.509,7.837,7.837,7.837h77.665v59.577h-11.843c0.034-0.471,0.057-0.945,0.057-1.424V73.827
	c0-10.675-8.727-19.359-19.454-19.359h-84.49c-10.727,0-19.454,8.685-19.454,19.359v29.328c0,0.48,0.022,0.954,0.057,1.424h-11.843
	V45.003h35.869c4.328,0,7.837-3.509,7.837-7.837s-3.509-7.837-7.837-7.837H165.747z M283.78,79.028h-55.562
	c-4.328,0-7.837,3.509-7.837,7.837s3.509,7.837,7.837,7.837h4.704v9.878h-22.654c-0.189-0.439-0.295-0.92-0.295-1.424V73.827
	c0-2.032,1.696-3.685,3.78-3.685h84.49c2.085,0,3.78,1.654,3.78,3.685v29.328c0,0.505-0.106,0.985-0.295,1.424h-22.654v-9.878h4.704
	c4.328,0,7.837-3.509,7.837-7.837C291.617,82.536,288.108,79.028,283.78,79.028z M263.403,94.701v9.878h-14.807v-9.878H263.403z
	 M372.436,482.672c2.361,0,4.355,1.949,4.355,4.256v5.144c0,2.307-1.995,4.255-4.355,4.255H139.563
	c-2.361,0-4.356-1.949-4.356-4.255v-5.144c0-2.306,1.995-4.256,4.356-4.256H372.436z M158.223,466.998v-11.575
	c0.205,0.002,0.408,0.016,0.612,0.016h25.959v11.56H158.223z M200.468,466.998v-11.56h26.572v11.56H200.468z M242.714,466.998
	v-11.56h26.572v11.56H242.714z M284.959,466.998v-11.56h26.572v11.56H284.959z M327.204,466.998v-11.56h25.959
	c0.205,0,0.408-0.014,0.612-0.016v11.575H327.204z M398.133,395.228c0,24.557-20.173,44.537-44.969,44.537H158.835
	c-24.796,0-44.969-19.979-44.969-44.537v-71.984h50.075c4.414,46.911,44.013,83.743,92.059,83.743
	c16.026,0,31.819-4.166,45.672-12.049c3.762-2.14,5.076-6.926,2.936-10.687c-2.14-3.763-6.926-5.075-10.687-2.936
	c-11.495,6.541-24.607,9.998-37.921,9.998c-42.348,0-76.8-34.452-76.8-76.8s34.452-76.8,76.8-76.8s76.8,34.452,76.8,76.8
	c0,18.013-6.36,35.521-17.911,49.3c-2.78,3.317-2.345,8.26,0.972,11.04c3.317,2.78,8.26,2.346,11.04-0.972
	c12.035-14.358,19.38-32.077,21.146-50.639h50.086V395.228z M398.133,183.021h-38.688c-4.328,0-7.837,3.509-7.837,7.837
	c0,4.328,3.509,7.837,7.837,7.837h38.688v108.876h-49.92c-3.562-47.759-43.559-85.53-92.213-85.53s-88.651,37.771-92.213,85.53
	h-49.92V198.695h211.097c4.328,0,7.837-3.509,7.837-7.837c0-4.328-3.509-7.837-7.837-7.837H113.866v-18.232
	c0-24.557,20.173-44.536,44.969-44.536h194.329c24.796,0,44.969,19.978,44.969,44.536v18.232H398.133z"/>
<g>
</g>
<g>
</g>
<g>
</g>
<g>
</g>
<g>
</g>
<g>
</g>
<g>
</g>
<g>
</g>
<g>
</g>
<g>
</g>
<g>
</g>
<g>
</g>
<g>
</g>
<g>
</g>
<g>
</g>
</svg>
